<svg width="51" height="50" viewBox="0 0 51 50" fill="none" xmlns="http://www.w3.org/2000/svg">
<rect x="0.993164" width="49.9972" height="50" rx="8" fill="#F3F6F9"/>
<g clip-path="url(#clip0_1_2438)">
<path d="M39.9284 32.75C39.9284 33.297 39.7111 33.8216 39.3244 34.2084C38.9376 34.5952 38.413 34.8125 37.866 34.8125H13.1174C12.5705 34.8125 12.0459 34.5952 11.6591 34.2084C11.2723 33.8216 11.0551 33.297 11.0551 32.75V20.375C11.0551 19.828 11.2723 19.3034 11.6591 18.9166C12.0459 18.5298 12.5705 18.3125 13.1174 18.3125H15.5346C17.1746 18.3116 18.7473 17.6595 19.9068 16.4996L21.6186 14.7918C22.0043 14.406 22.5271 14.1887 23.0726 14.1875H27.9068C28.4537 14.1876 28.9782 14.405 29.3649 14.7918L31.0725 16.4996C31.6472 17.0744 32.3295 17.5304 33.0804 17.8415C33.8313 18.1525 34.6361 18.3126 35.4489 18.3125H37.866C38.413 18.3125 38.9376 18.5298 39.3244 18.9166C39.7111 19.3034 39.9284 19.828 39.9284 20.375V32.75ZM13.1174 16.25C12.0235 16.25 10.9743 16.6846 10.2008 17.4582C9.42725 18.2318 8.99268 19.281 8.99268 20.375V32.75C8.99268 33.844 9.42725 34.8932 10.2008 35.6668C10.9743 36.4404 12.0235 36.875 13.1174 36.875H37.866C38.96 36.875 40.0091 36.4404 40.7827 35.6668C41.5562 34.8932 41.9908 33.844 41.9908 32.75V20.375C41.9908 19.281 41.5562 18.2318 40.7827 17.4582C40.0091 16.6846 38.96 16.25 37.866 16.25H35.4489C34.3551 16.2498 33.3061 15.815 32.5327 15.0414L30.8251 13.3336C30.0517 12.56 29.0027 12.1252 27.9089 12.125H23.0746C21.9808 12.1252 20.9318 12.56 20.1584 13.3336L18.4508 15.0414C17.6774 15.815 16.6284 16.2498 15.5346 16.25H13.1174Z" fill="#464E5F"/>
<path d="M25.492 30.6875C24.1245 30.6875 22.8131 30.1443 21.8462 29.1773C20.8792 28.2103 20.336 26.8988 20.336 25.5312C20.336 24.1637 20.8792 22.8522 21.8462 21.8852C22.8131 20.9182 24.1245 20.375 25.492 20.375C26.8594 20.375 28.1709 20.9182 29.1378 21.8852C30.1047 22.8522 30.6479 24.1637 30.6479 25.5312C30.6479 26.8988 30.1047 28.2103 29.1378 29.1773C28.1709 30.1443 26.8594 30.6875 25.492 30.6875ZM25.492 32.75C27.4064 32.75 29.2424 31.9895 30.5961 30.6357C31.9498 29.2819 32.7103 27.4458 32.7103 25.5312C32.7103 23.6167 31.9498 21.7806 30.5961 20.4268C29.2424 19.073 27.4064 18.3125 25.492 18.3125C23.5776 18.3125 21.7415 19.073 20.3878 20.4268C19.0341 21.7806 18.2736 23.6167 18.2736 25.5312C18.2736 27.4458 19.0341 29.2819 20.3878 30.6357C21.7415 31.9895 23.5776 32.75 25.492 32.75ZM15.1801 21.4062C15.1801 21.6798 15.0714 21.9421 14.878 22.1355C14.6846 22.3289 14.4224 22.4375 14.1489 22.4375C13.8754 22.4375 13.6131 22.3289 13.4197 22.1355C13.2263 21.9421 13.1177 21.6798 13.1177 21.4062C13.1177 21.1327 13.2263 20.8704 13.4197 20.677C13.6131 20.4836 13.8754 20.375 14.1489 20.375C14.4224 20.375 14.6846 20.4836 14.878 20.677C15.0714 20.8704 15.1801 21.1327 15.1801 21.4062Z" fill="#464E5F"/>
</g>
<defs>
<clipPath id="clip0_1_2438">
<rect width="32.9981" height="33" fill="white" transform="translate(8.99268 8)"/>
</clipPath>
</defs>
</svg>
